<svg width="39" height="35" xmlns="http://www.w3.org/2000/svg" fill="none">

 <g>
  <title>Layer 1</title>
  <path transform="rotate(180 19.4684 17.6606)" id="svg_1" fill="#475BE8" d="m30.24157,17.66063c0,0.3845 -0.1008,0.7622 -0.2924,1.0955l-4.3088,7.4334c-0.1925,0.3319 -0.4688,0.6074 -0.8012,0.799c-0.3323,0.1915 -0.7092,0.2925 -1.0928,0.2927l-8.5714,0c-0.381,-0.0029 -0.7547,-0.1051 -1.0841,-0.2966c-0.3295,-0.1914 -0.6033,-0.4655 -0.7945,-0.7951l-4.30882,-7.4334c-0.19155,-0.3333 -0.29236,-0.711 -0.29236,-1.0955c0,-0.3845 0.10081,-0.7622 0.29236,-1.0955l3.56506,-5.9897l1.78253,-2.99485l1.45375,-2.54426c0.29709,-0.59289 0.0942,-1.68577 0.00067,-2.23179c-0.12033,-0.30927 -0.22504,-0.55605 -0.32975,-0.77157c-0.31732,-0.5374 -0.68843,-0.87693 -1.21043,-1.17823c-0.522,-0.30129 -1.1141,-0.46001 -1.7168,-0.46024l-0.7792,0c-0.6896,-0.00026 -1.3671,0.18106 -1.9643,0.52574c-0.59726,0.34467 -1.09322,0.84054 -1.43801,1.43773l-7.71498,13.34307c-0.34504,0.5968 -0.52671,1.2741 -0.52671,1.9635c0,0.6894 0.18167,1.3666 0.52671,1.9634l7.71499,13.3431c0.34527,0.5965 0.84144,1.0916 1.43866,1.4355c0.59724,0.344 1.27444,0.5248 1.96364,0.5241l15.43,0c0.6896,0.0003 1.367,-0.1811 1.9643,-0.5257c0.5972,-0.3447 1.0932,-0.8406 1.438,-1.4378l7.715,-13.343c0.345,-0.5969 0.5267,-1.2741 0.5267,-1.9635c0,-0.6894 -0.1817,-1.3666 -0.5267,-1.9635l-7.715,-13.34303c-0.3448,-0.59719 -0.8408,-1.09306 -1.438,-1.43773c-0.5973,-0.34467 -1.2747,-0.526 -1.9643,-0.52574l-6.5578,0l4.808,8.635l2.404,4.3175l1.202,2.15875l1.202,2.15875z"/>
 </g>
</svg>